REM DIRINDEX 1\2,1\3,1\4,1\5
REM DIRNAME cjc004,folder01,folder02,folder03,folder04
TITLE ""
FILE "1Q_t_0860-0869.mp3" MP3
  TRACK 01 AUDIO
    TITLE "3:cjc004_3483"
    INDEX 01 00:00:00
  TRACK 02 AUDIO
    TITLE "0:"
    INDEX 01 00:00:62
  TRACK 03 AUDIO
    TITLE "4:cjc004_3484"
    INDEX 01 00:01:17
  TRACK 04 AUDIO
    TITLE "0:"
    INDEX 01 00:02:22
  TRACK 05 AUDIO
    TITLE "5:cjc004_3485"
    INDEX 01 00:02:43
  TRACK 06 AUDIO
    TITLE "0:"
    INDEX 01 00:06:00
  TRACK 07 AUDIO
    TITLE "3:cjc004_3486"
    INDEX 01 00:06:51
  TRACK 08 AUDIO
    TITLE "0:"
    INDEX 01 00:07:68
  TRACK 09 AUDIO
    TITLE "4:cjc004_3487"
    INDEX 01 00:08:23
  TRACK 10 AUDIO
    TITLE "0:"
    INDEX 01 00:10:04
  TRACK 11 AUDIO
    TITLE "5:cjc004_3488"
    INDEX 01 00:10:33
  TRACK 12 AUDIO
    TITLE "0:"
    INDEX 01 00:15:36
  TRACK 13 AUDIO
    TITLE "3:cjc004_3489"
    INDEX 01 00:16:12
  TRACK 14 AUDIO
    TITLE "0:"
    INDEX 01 00:17:37
  TRACK 15 AUDIO
    TITLE "4:cjc004_3490"
    INDEX 01 00:17:61
  TRACK 16 AUDIO
    TITLE "0:"
    INDEX 01 00:19:42
  TRACK 17 AUDIO
    TITLE "5:cjc004_3491"
    INDEX 01 00:19:67
  TRACK 18 AUDIO
    TITLE "0:"
    INDEX 01 00:24:35
  TRACK 19 AUDIO
    TITLE "3:cjc004_3492"
    INDEX 01 00:25:15
  TRACK 20 AUDIO
    TITLE "0:"
    INDEX 01 00:26:30
  TRACK 21 AUDIO
    TITLE "4:cjc004_3493"
    INDEX 01 00:26:56
  TRACK 22 AUDIO
    TITLE "0:"
    INDEX 01 00:27:73
  TRACK 23 AUDIO
    TITLE "5:cjc004_3494"
    INDEX 01 00:28:25
  TRACK 24 AUDIO
    TITLE "0:"
    INDEX 01 00:33:73
  TRACK 25 AUDIO
    TITLE "3:cjc004_3495"
    INDEX 01 00:34:47
  TRACK 26 AUDIO
    TITLE "0:"
    INDEX 01 00:35:64
  TRACK 27 AUDIO
    TITLE "4:cjc004_3496"
    INDEX 01 00:36:19
  TRACK 28 AUDIO
    TITLE "0:"
    INDEX 01 00:37:36
  TRACK 29 AUDIO
    TITLE "5:cjc004_3497"
    INDEX 01 00:37:63
  TRACK 30 AUDIO
    TITLE "0:"
    INDEX 01 00:41:49
  TRACK 31 AUDIO
    TITLE "3:cjc004_3498"
    INDEX 01 00:42:21
  TRACK 32 AUDIO
    TITLE "0:"
    INDEX 01 00:43:27
  TRACK 33 AUDIO
    TITLE "4:cjc004_3499"
    INDEX 01 00:43:54
  TRACK 34 AUDIO
    TITLE "0:"
    INDEX 01 00:44:71
  TRACK 35 AUDIO
    TITLE "5:cjc004_3500"
    INDEX 01 00:45:16
  TRACK 36 AUDIO
    TITLE "0:"
    INDEX 01 00:51:18
  TRACK 37 AUDIO
    TITLE "3:cjc004_3501"
    INDEX 01 00:51:71
  TRACK 38 AUDIO
    TITLE "0:"
    INDEX 01 00:52:67
  TRACK 39 AUDIO
    TITLE "4:cjc004_3502"
    INDEX 01 00:53:15
  TRACK 40 AUDIO
    TITLE "0:"
    INDEX 01 00:54:72
  TRACK 41 AUDIO
    TITLE "5:cjc004_3503"
    INDEX 01 00:55:18
  TRACK 42 AUDIO
    TITLE "0:"
    INDEX 01 00:59:22
  TRACK 43 AUDIO
    TITLE "3:cjc004_3504"
    INDEX 01 01:00:00
  TRACK 44 AUDIO
    TITLE "0:"
    INDEX 01 01:01:03
  TRACK 45 AUDIO
    TITLE "4:cjc004_3505"
    INDEX 01 01:01:31
  TRACK 46 AUDIO
    TITLE "0:"
    INDEX 01 01:02:65
  TRACK 47 AUDIO
    TITLE "5:cjc004_3506"
    INDEX 01 01:03:20
  TRACK 48 AUDIO
    TITLE "0:"
    INDEX 01 01:08:07
  TRACK 49 AUDIO
    TITLE "3:cjc004_3507"
    INDEX 01 01:08:58
  TRACK 50 AUDIO
    TITLE "0:"
    INDEX 01 01:09:65
  TRACK 51 AUDIO
    TITLE "4:cjc004_3508"
    INDEX 01 01:10:14
  TRACK 52 AUDIO
    TITLE "0:"
    INDEX 01 01:11:54
  TRACK 53 AUDIO
    TITLE "5:cjc004_3509"
    INDEX 01 01:12:03
  TRACK 54 AUDIO
    TITLE "0:"
    INDEX 01 01:16:01
  TRACK 55 AUDIO
    TITLE "3:cjc004_3510"
    INDEX 01 01:16:54
  TRACK 56 AUDIO
    TITLE "0:"
    INDEX 01 01:17:61
  TRACK 57 AUDIO
    TITLE "4:cjc004_3511"
    INDEX 01 01:18:17
  TRACK 58 AUDIO
    TITLE "0:"
    INDEX 01 01:20:30
  TRACK 59 AUDIO
    TITLE "5:cjc004_3512"
    INDEX 01 01:20:57
  TRACK 60 AUDIO
    TITLE "0:"
    INDEX 01 01:24:30
